<svg width="129" height="133" viewBox="0 0 129 133" fill="none" xmlns="http://www.w3.org/2000/svg">
<path d="M5.7392 81.3345C5.71762 83.2147 6.1926 85.0994 7.16425 86.7848L20.1643 109.334C22.0685 112.637 25.5906 114.672 29.403 114.673L98.6024 114.688C102.415 114.688 105.938 112.655 107.843 109.353L120.853 86.8089C121.825 85.124 122.301 83.2396 122.28 81.3594L5.7392 81.3345Z" fill="url(#paint0_linear_2_36)"/>
<path d="M103.981 113.234L45.667 12.1818C47.2922 11.2131 49.1734 10.6771 51.1308 10.6776L76.9191 10.683C80.7299 10.6839 84.2509 12.7177 86.1556 16.0183L120.853 76.146C122.757 79.4454 122.757 83.5096 120.853 86.8089L107.843 109.353C106.899 110.989 105.558 112.314 103.981 113.234Z" fill="url(#paint1_linear_2_36)"/>
<path d="M82.3823 12.1896C80.7575 11.2203 78.8766 10.6835 76.9191 10.683L51.1308 10.6776C47.32 10.6767 43.7982 12.709 41.8921 16.0089L7.16878 76.1219C5.26344 79.4204 5.26175 83.4846 7.16434 86.7848L20.1644 109.334C21.108 110.971 22.4489 112.296 24.0255 113.217L82.3823 12.1896Z" fill="url(#paint2_linear_2_36)"/>
<path d="M122.281 81.3594C122.301 83.2396 121.826 85.124 120.853 86.8089L107.843 109.353C106.899 110.989 105.558 112.314 103.981 113.234L85.5825 81.3516L122.281 81.3594Z" fill="#4285F4"/>
<path d="M82.3822 12.1896C80.7575 11.2203 78.8766 10.6835 76.9191 10.683L51.1308 10.6776C49.1733 10.6771 47.2922 11.2131 45.667 12.1818L64.0179 43.982L82.3822 12.1896Z" fill="#161863"/>
<path d="M5.7392 81.3345C5.71762 83.2147 6.1926 85.0994 7.16425 86.7848L20.1643 109.334C21.1079 110.971 22.4488 112.296 24.0254 113.217L42.4372 81.3424L5.7392 81.3345Z" fill="#335EBF"/>
<path d="M96.3696 130.901C99.2473 128.242 110.452 104.622 110.452 104.622C110.452 104.622 80.2472 115.242 83.2472 114.742C86.2472 114.242 93.4919 133.56 96.3696 130.901Z" fill="#4386F5"/>
<defs>
<linearGradient id="paint0_linear_2_36" x1="44.5" y1="113" x2="76.5" y2="99.5" gradientUnits="userSpaceOnUse">
<stop stop-color="#161863"/>
<stop offset="1" stop-color="#4285F4"/>
</linearGradient>
<linearGradient id="paint1_linear_2_36" x1="71.0256" y1="8.01513" x2="106.51" y2="81.0227" gradientUnits="userSpaceOnUse">
<stop stop-color="#4283F1"/>
<stop offset="1" stop-color="#161863"/>
</linearGradient>
<linearGradient id="paint2_linear_2_36" x1="60.019" y1="39.0128" x2="54.5044" y2="107.512" gradientUnits="userSpaceOnUse">
<stop stop-color="#161863"/>
<stop offset="1" stop-color="#4283F1"/>
</linearGradient>
</defs>
</svg>
